<svg id="Logo_Collective_Behaviour" data-name="Logo Collective Behaviour" xmlns="http://www.w3.org/2000/svg" viewBox="0 0 1469.9 283.46"><defs><style>.cls-1{fill:#1d1d1b;}</style></defs><path class="cls-1" d="M1328.18,141.73V425.2h283.46V141.73Zm27.39,90.57,33.24-5.81-18.69,39.89L1330,260.82V252.4Zm106.57,88.42L1453,341.18l-37.53,19.39,24-32.82Zm-92.55-52.6-7.4,33.33-32.21-16V262.64ZM1330,326.86V314.67l30.89-10.3-16.75,29.42Zm42.65,33.88,20.28,39L1360.48,382Zm-13.34,19.66-13-42.78,25.27,21.44ZM1395,399.93l-20.77-40,36.93,4Zm17.52-34.68,12.59,25.84-28.39,9.41Zm-66.88-30.51,16.71-29.35,9,51.17ZM1330,287.44l30.49,15.17L1330,312.77Zm0,41.43,13.77,6.71L1358,382.43v0l-28,39.16Zm28,56.67V423.4h-27.11Zm1.8-1.89,33.84,18.6-18.26,21.15h-15.58Zm35.77,19.12,29.47-9.77L1417,423.4h-39.16Zm54.5-41.39h0l20.29,12.87-13.15,24.48-29.37-7.64Zm-1-1.6-22.51,30.11-12.85-26.37,38.77-20Zm-35.34.16,2.38-24.95,20.48-6.35Zm-2,2.19L1373.44,358l-9.5-54.09,27.82,6.82,22.56,23.86Zm-47.5-59.95.58-1-.73.24,7-31.39,19.49,38.59Zm26-74.4,6.2,19.64L1373,264.56ZM1330,250.11V209l23.83,22.4ZM1609.84,423.4h-191l8.21-30.69,31.17,8.11,14.61-27.2-20.37-12.92,40.7-12,15.46-21.44-25.22,3.06L1451.05,359l3.52-16.91,10.83-24.29-26.81,8.31-.12-.08-.12.16-22.83,7.07-22.61-23.86-21.1-41.78,26.7-19.53L1391,224.29l-35.5,6.2-25.5-24v-63h279.86Zm-155.08-65.27,29.39-26.08,20.57-2.5L1492,347.15Z" transform="translate(-141.74 -141.73)"/><path class="cls-1" d="M1452,268.88l-22.87-11-47.34,7.45,45.63,13.29Zm-62-3.06,38.82-6.1,18.67,9-20.19,8Z" transform="translate(-141.74 -141.73)"/><path class="cls-1" d="M1422.68,310.81l47.21,1.35h.3l21.34-15.59-24.92-4.91Zm64.47-13.26-17.52,12.8-38.83-1.11,36-15.69Z" transform="translate(-141.74 -141.73)"/><path class="cls-1" d="M1506.05,362.71l43.28-18.9.28-.12,12.66-23.2-24.64,6.18Zm52.67-39.48-10.39,19-35.61,15.55,25.9-29.55Z" transform="translate(-141.74 -141.73)"/><path class="cls-1" d="M1531.75,322.64l34.72-32.45,4.21-26.1-21.17,14Zm36.49-54.77-3.45,21.42-28.38,26.53,14.57-36.5Z" transform="translate(-141.74 -141.73)"/><path class="cls-1" d="M1542.53,268l9.29-24.74-23.53,9.56L1502.05,293Zm-13-13.72,19.2-7.8-7.63,20.31L1508,287.2Z" transform="translate(-141.74 -141.73)"/><path class="cls-1" d="M1473.33,196.62l-25.38-.76-40.21,26.08,47.1-6.44Zm-57.84,22.44,33-21.38,20.71.62L1454,213.8Z" transform="translate(-141.74 -141.73)"/><path class="cls-1" d="M1486.38,262.93l-41.87,23.32,47.42-3.26,19.73-17.59Zm4.81,18.3-38.76,2.67,34.33-19.12,20.63,2Z" transform="translate(-141.74 -141.73)"/><path class="cls-1" d="M1595.69,174.92l-22,12.75L1553.32,231l36.61-30.32Zm-37.3,49.58,16.72-35.56,17.92-10.4-4.72,21.18Z" transform="translate(-141.74 -141.73)"/><path class="cls-1" d="M1578.26,238.5l-1.09,47.9,21.19-42.54-5.18-25.92Zm.89,39.88.9-39.28,12.17-16.77,4.26,21.28Z" transform="translate(-141.74 -141.73)"/><path class="cls-1" d="M1526.71,172.75l-24.9-5-44,19,47.5,1.55Zm-60.79,12.42L1502,169.62l20.32,4.09-17.57,12.73Z" transform="translate(-141.74 -141.73)"/><path class="cls-1" d="M190.52,259.3c-4,9.72-11.88,15.57-22.86,15.57-16.11,0-25.92-12.51-25.92-31.68s9.9-31.68,25.92-31.68c10.62,0,18.45,5.4,22.5,14.58l-2.79,2.61c-3.51-8.91-10.44-14-19.71-14-13.59,0-22.32,11.34-22.32,28.53s8.91,28.53,22.32,28.53c9.36,0,16.56-5.31,20.07-14.49Z" transform="translate(-141.74 -141.73)"/><path class="cls-1" d="M235,251.38v.81H201.59V253c0,10.44,5.22,18.81,16,18.81,9.27,0,13-5.67,15.3-9.9l2.34,2.34a19.3,19.3,0,0,1-17.73,10.62c-11.79,0-19.53-8.1-19.53-22.32,0-13.5,7.11-22.68,18.9-22.68S235,238.87,235,251.38Zm-33.3-2.07h29.61c-.09-8.19-4.68-16.56-14.4-16.56C207.71,232.75,202.58,239,201.68,249.31Z" transform="translate(-141.74 -141.73)"/><path class="cls-1" d="M278.81,273.79h-3.33v-23.4c0-10.53-1.26-17.46-11.7-17.46A13.3,13.3,0,0,0,254,236.8a16.27,16.27,0,0,0-4,11.07v25.92h-3.33V231H250v8h.09c1.53-4.23,6.12-9.09,14.49-9.09,6.12,0,9.9,2.34,12.06,6.21,1.53,2.79,2.16,6.48,2.16,11.61Z" transform="translate(-141.74 -141.73)"/><path class="cls-1" d="M310.4,272.71a15.13,15.13,0,0,1-7.47,2.07c-2.52,0-4.77-.72-6-2.61-1-1.44-1.44-3.06-1.44-7V234h-8.64V231h8.64V214.48l3.33-.72V231h10.62V234H298.79v31.05a10.78,10.78,0,0,0,.72,4.77c.63,1.17,1.8,1.89,4.05,1.89a12.39,12.39,0,0,0,6.84-2.25Z" transform="translate(-141.74 -141.73)"/><path class="cls-1" d="M339.29,233.38a14.27,14.27,0,0,0-3.24-.36c-8.1,0-12.6,7.92-12.6,15.12v25.65h-3.33V231h3.24v9.18h.09c1.26-4.77,5.67-10.26,12.51-10.26a10.62,10.62,0,0,1,3.33.45Z" transform="translate(-141.74 -141.73)"/><path class="cls-1" d="M380.24,251.38v.81H346.85V253c0,10.44,5.22,18.81,16,18.81,9.27,0,13.05-5.67,15.3-9.9l2.34,2.34a19.3,19.3,0,0,1-17.73,10.62c-11.79,0-19.53-8.1-19.53-22.32,0-13.5,7.11-22.68,18.9-22.68S380.24,238.87,380.24,251.38Zm-33.3-2.07h29.61c-.09-8.19-4.68-16.56-14.4-16.56C353,232.75,347.84,239,346.94,249.31Z" transform="translate(-141.74 -141.73)"/><path class="cls-1" d="M430.82,234h-11.7v39.78h-3.33V234H406V231h9.81v-9.72c0-3.6.72-5.58,2-7,1.71-2,4.41-2.7,7.47-2.7a19.88,19.88,0,0,1,5.58.81v3.24a17.74,17.74,0,0,0-5.76-1.08,6.12,6.12,0,0,0-4.59,1.62c-.81.9-1.35,2.07-1.35,4.86v10h11.7Z" transform="translate(-141.74 -141.73)"/><path class="cls-1" d="M454.4,229.87c11.88,0,19,9.09,19,22.68,0,13.41-7.29,22.32-19,22.32s-18.9-8.91-18.9-22.32C435.5,239,442.52,229.87,454.4,229.87Zm0,42.12c9.27,0,15.39-7.29,15.39-19.53,0-12.51-5.94-19.71-15.39-19.71s-15.3,7.29-15.3,19.71S445.22,272,454.4,272Z" transform="translate(-141.74 -141.73)"/><path class="cls-1" d="M504.26,233.38A14.27,14.27,0,0,0,501,233c-8.1,0-12.6,7.92-12.6,15.12v25.65h-3.33V231h3.24v9.18h.09c1.26-4.77,5.67-10.26,12.51-10.26a10.62,10.62,0,0,1,3.33.45Z" transform="translate(-141.74 -141.73)"/><path class="cls-1" d="M549.53,272.71a15.13,15.13,0,0,1-7.47,2.07c-2.52,0-4.77-.72-6-2.61-1-1.44-1.44-3.06-1.44-7V234H526V231h8.64V214.48l3.33-.72V231h10.62V234H537.92v31.05a10.78,10.78,0,0,0,.72,4.77c.63,1.17,1.8,1.89,4.05,1.89a12.39,12.39,0,0,0,6.84-2.25Z" transform="translate(-141.74 -141.73)"/><path class="cls-1" d="M591.37,273.79H588v-23.4c0-10.53-1.26-17.46-11.7-17.46a13.3,13.3,0,0,0-9.8,3.87,16.27,16.27,0,0,0-4,11.07v25.92h-3.33v-61.2h3.33V239h.09c1.62-4.23,6.21-9.09,14.48-9.09,6.12,0,9.9,2.34,12.06,6.21,1.53,2.79,2.16,6.48,2.16,11.61Z" transform="translate(-141.74 -141.73)"/><path class="cls-1" d="M639.52,251.38v.81H606.14V253c0,10.44,5.22,18.81,16,18.81,9.27,0,13.05-5.67,15.3-9.9l2.34,2.34a19.3,19.3,0,0,1-17.73,10.62c-11.78,0-19.52-8.1-19.52-22.32,0-13.5,7.11-22.68,18.9-22.68S639.52,238.87,639.52,251.38Zm-33.29-2.07h29.6c-.09-8.19-4.68-16.56-14.39-16.56C612.26,232.75,607.13,239,606.23,249.31Z" transform="translate(-141.74 -141.73)"/><path class="cls-1" d="M668.23,273.79h-3.6l23-61.2H692l23,61.2h-3.51l-7.2-19.26h-29Zm25.38-47.43c-1.17-3.15-3-8.28-3.78-11.07-1.08,3.06-3,8-4.05,11l-9.36,25H703Z" transform="translate(-141.74 -141.73)"/><path class="cls-1" d="M753.55,239.68h.09V212.59H757v61.2h-3.33v-8.91h-.09a15.13,15.13,0,0,1-14.76,10c-11.61,0-18.18-8.64-18.18-22.68,0-13.86,7.2-22.32,18.18-22.32C747.52,229.87,751.57,234.73,753.55,239.68Zm-14.49-6.93c-9.36,0-14.85,7.2-14.85,19.62,0,12.69,5.85,19.62,15,19.62,8.91,0,14.67-6.93,14.67-19.71C753.91,239.77,748.15,232.75,739.06,232.75Z" transform="translate(-141.74 -141.73)"/><path class="cls-1" d="M785.05,273.79h-2.7L766.78,231h3.69l10.62,29.61c1.26,3.42,2.52,7.74,2.79,8.73H784c.27-1,1.62-5.13,3.06-8.82L798.19,231h3.51Z" transform="translate(-141.74 -141.73)"/><path class="cls-1" d="M839.05,243.19V265.6c0,4.59,1.08,6.12,4.32,6.12a7.14,7.14,0,0,0,2.61-.45v2.61a8.28,8.28,0,0,1-3.33.54c-4.14,0-6.66-2.16-6.66-6.84v-1.26h-.18c-1.8,3.87-6.66,8.55-15.39,8.55s-13.86-4.86-13.86-12.51c0-8.19,7-11.07,16-12.6l6.21-1.08c4.5-.81,7.11-1,7.11-4.86v-.63c0-6.93-3.42-10.44-11.79-10.44-8.82,0-12.51,4.14-12.69,11l-3.06-.9c.09-8.37,6.57-12.87,15.84-12.87C831.49,230,839.05,231.94,839.05,243.19ZM835.9,258v-8.73c-.81.72-3,1.26-6.39,1.89L823,252.37c-7.74,1.44-12.87,3.42-12.87,10.08,0,6.39,4.59,9.54,11.34,9.54C829.6,272,835.9,266.05,835.9,258Z" transform="translate(-141.74 -141.73)"/><path class="cls-1" d="M885.76,273.79h-3.33v-23.4c0-10.53-1.26-17.46-11.7-17.46a13.3,13.3,0,0,0-9.81,3.87,16.27,16.27,0,0,0-4,11.07v25.92h-3.33V231H857v8h.09c1.53-4.23,6.12-9.09,14.49-9.09,6.12,0,9.9,2.34,12.06,6.21,1.53,2.79,2.16,6.48,2.16,11.61Z" transform="translate(-141.74 -141.73)"/><path class="cls-1" d="M932,264.88c-3.06,5.85-8.19,10-16.2,10-11.79,0-18.9-8.91-18.9-22.32,0-13.59,7.11-22.68,18.9-22.68,8.37,0,13.86,4,16.65,10.8l-2.61,2.7c-2.25-6.75-7.2-10.62-14-10.62-9.36,0-15.3,7.47-15.3,19.71S906.64,272,915.82,272c6.3,0,11.07-3.33,13.68-9.36Z" transform="translate(-141.74 -141.73)"/><path class="cls-1" d="M976.84,251.38v.81H943.45V253c0,10.44,5.22,18.81,16,18.81,9.27,0,13-5.67,15.3-9.9l2.34,2.34a19.3,19.3,0,0,1-17.73,10.62c-11.79,0-19.53-8.1-19.53-22.32,0-13.5,7.11-22.68,18.9-22.68S976.84,238.87,976.84,251.38Zm-33.3-2.07h29.61c-.09-8.19-4.68-16.56-14.4-16.56C949.57,232.75,944.44,239,943.54,249.31Z" transform="translate(-141.74 -141.73)"/><path class="cls-1" d="M1018.51,239.68h.09V212.59h3.33v61.2h-3.33v-8.91h-.09a15.13,15.13,0,0,1-14.76,10c-11.61,0-18.18-8.64-18.18-22.68,0-13.86,7.2-22.32,18.18-22.32C1012.48,229.87,1016.53,234.73,1018.51,239.68ZM1004,232.75c-9.36,0-14.85,7.2-14.85,19.62,0,12.69,5.85,19.62,15,19.62,8.91,0,14.67-6.93,14.67-19.71C1018.87,239.77,1013.11,232.75,1004,232.75Z" transform="translate(-141.74 -141.73)"/><path class="cls-1" d="M1094.74,223.21a22.21,22.21,0,0,0-18.18-8.64c-9.54,0-16.47,4.5-16.47,12.33,0,7.65,4.77,10.71,13.86,12.6l8.46,1.8c10.17,2.16,17,6.39,17,16.11,0,10.35-7.83,17.46-22,17.46-12.51,0-20.07-6.75-23.49-13.14l3-2.34c3.06,6.39,9.9,12.33,20.61,12.33,11.52,0,18.27-5.85,18.27-14,0-7.38-5.22-11.25-14.4-13.14l-8.55-1.8c-8.82-1.89-16.38-5-16.38-15.48,0-9.63,8-15.75,20.25-15.75,10.35,0,16.65,4.41,20.34,8.91Z" transform="translate(-141.74 -141.73)"/><path class="cls-1" d="M1127.23,272.71a15.13,15.13,0,0,1-7.47,2.07c-2.52,0-4.77-.72-6-2.61-1-1.44-1.44-3.06-1.44-7V234h-8.64V231h8.64V214.48l3.33-.72V231h10.62V234h-10.62v31.05a10.78,10.78,0,0,0,.72,4.77c.63,1.17,1.8,1.89,4.05,1.89a12.39,12.39,0,0,0,6.84-2.25Z" transform="translate(-141.74 -141.73)"/><path class="cls-1" d="M1136.05,231h3.33v23.4c0,10.53,1,17.46,11.43,17.46a12.87,12.87,0,0,0,9.63-3.87,16.27,16.27,0,0,0,4-11.07V231h3.33v42.84h-3.33v-7.74h-.09c-1.89,4.23-6,8.82-14.31,8.82-6.12,0-9.63-2.34-11.79-6.21-1.53-2.79-2.16-6.48-2.16-11.61Z" transform="translate(-141.74 -141.73)"/><path class="cls-1" d="M1212.37,239.68h.09V212.59h3.33v61.2h-3.33v-8.91h-.09a15.13,15.13,0,0,1-14.76,10c-11.61,0-18.18-8.64-18.18-22.68,0-13.86,7.2-22.32,18.18-22.32C1206.34,229.87,1210.39,234.73,1212.37,239.68Zm-14.49-6.93c-9.36,0-14.85,7.2-14.85,19.62,0,12.69,5.85,19.62,15,19.62,8.91,0,14.67-6.93,14.67-19.71C1212.73,239.77,1207,232.75,1197.88,232.75Z" transform="translate(-141.74 -141.73)"/><path class="cls-1" d="M1226.32,287.38a8.55,8.55,0,0,0,4.32,1.08,5.48,5.48,0,0,0,3.42-1c1.08-.9,2-2.43,3.15-5.4l3.6-9.27L1225.6,231h3.78l10.89,30.51,2.43,7.11h.09c.45-1.35,1.26-3.69,2.7-7.38L1257,231h3.59l-18.8,48.33a60.45,60.45,0,0,1-3.6,8.1c-1.71,2.79-3.78,4.23-7.74,4.23a9.89,9.89,0,0,1-4.14-.81Z" transform="translate(-141.74 -141.73)"/><path class="cls-1" d="M439.44,310.41c11.88,0,19,9.09,19,22.68,0,13.41-7.29,22.32-19,22.32s-18.89-8.91-18.89-22.32C420.55,319.5,427.57,310.41,439.44,310.41Zm0,42.12c9.27,0,15.39-7.29,15.39-19.53,0-12.51-5.94-19.71-15.39-19.71s-15.29,7.29-15.29,19.71S430.26,352.53,439.44,352.53Z" transform="translate(-141.74 -141.73)"/><path class="cls-1" d="M488.32,314.55h-11.7v39.78h-3.33V314.55h-9.81v-3.06h9.81v-9.72c0-3.6.72-5.58,2-7,1.71-2,4.41-2.7,7.47-2.7a19.88,19.88,0,0,1,5.58.81v3.24a17.74,17.74,0,0,0-5.76-1.08,6.12,6.12,0,0,0-4.59,1.62c-.81.9-1.35,2.07-1.35,4.86v10h11.7Z" transform="translate(-141.74 -141.73)"/><path class="cls-1" d="M562.92,339.84c-4,9.72-11.88,15.57-22.86,15.57-16.1,0-25.91-12.51-25.91-31.68s9.9-31.68,25.91-31.68c10.62,0,18.45,5.4,22.5,14.58l-2.79,2.61c-3.51-8.91-10.44-14-19.71-14-13.59,0-22.31,11.34-22.31,28.53s8.91,28.53,22.31,28.53c9.36,0,16.56-5.31,20.07-14.49Z" transform="translate(-141.74 -141.73)"/><path class="cls-1" d="M589.29,310.41c11.88,0,19,9.09,19,22.68,0,13.41-7.29,22.32-19,22.32s-18.9-8.91-18.9-22.32C570.39,319.5,577.41,310.41,589.29,310.41Zm0,42.12c9.27,0,15.39-7.29,15.39-19.53,0-12.51-5.94-19.71-15.39-19.71S574,320.58,574,333,580.11,352.53,589.29,352.53Z" transform="translate(-141.74 -141.73)"/><path class="cls-1" d="M623.31,354.33H620v-61.2h3.33Z" transform="translate(-141.74 -141.73)"/><path class="cls-1" d="M641.31,354.33H638v-61.2h3.33Z" transform="translate(-141.74 -141.73)"/><path class="cls-1" d="M690,331.92v.81H656.61v.81c0,10.44,5.22,18.81,16,18.81,9.27,0,13-5.67,15.3-9.9l2.34,2.34a19.3,19.3,0,0,1-17.73,10.62c-11.79,0-19.53-8.1-19.53-22.32,0-13.5,7.11-22.68,18.9-22.68S690,319.41,690,331.92Zm-33.3-2.07h29.61c-.09-8.19-4.68-16.56-14.4-16.56C662.73,313.29,657.6,319.5,656.7,329.85Z" transform="translate(-141.74 -141.73)"/><path class="cls-1" d="M733.83,345.42c-3.06,5.85-8.19,10-16.2,10-11.79,0-18.9-8.91-18.9-22.32,0-13.59,7.11-22.68,18.9-22.68,8.37,0,13.86,4,16.65,10.8l-2.61,2.7c-2.25-6.75-7.2-10.62-14-10.62-9.36,0-15.3,7.47-15.3,19.71s6.12,19.53,15.3,19.53c6.3,0,11.07-3.33,13.68-9.36Z" transform="translate(-141.74 -141.73)"/><path class="cls-1" d="M762.63,353.25a15.13,15.13,0,0,1-7.47,2.07c-2.52,0-4.77-.72-6-2.61-1-1.44-1.44-3.06-1.44-7V314.55h-8.64v-3.06h8.64V295l3.33-.72v17.19h10.62v3.06H751V345.6a10.78,10.78,0,0,0,.72,4.77c.63,1.17,1.8,1.89,4,1.89a12.39,12.39,0,0,0,6.84-2.25Z" transform="translate(-141.74 -141.73)"/><path class="cls-1" d="M775.68,302.58h-3.33v-7.19h3.33Zm0,51.75h-3.33V311.49h3.33Z" transform="translate(-141.74 -141.73)"/><path class="cls-1" d="M803.76,354.33h-2.7l-15.57-42.84h3.69L799.8,341.1c1.26,3.42,2.52,7.74,2.79,8.73h.09c.27-1,1.62-5.13,3.06-8.82l11.16-29.52h3.51Z" transform="translate(-141.74 -141.73)"/><path class="cls-1" d="M863.07,331.92v.81H829.68v.81c0,10.44,5.22,18.81,16,18.81,9.27,0,13-5.67,15.3-9.9l2.34,2.34a19.3,19.3,0,0,1-17.73,10.62c-11.79,0-19.53-8.1-19.53-22.32,0-13.5,7.11-22.68,18.9-22.68S863.07,319.41,863.07,331.92Zm-33.3-2.07h29.61c-.09-8.19-4.68-16.56-14.4-16.56C835.8,313.29,830.67,319.5,829.77,329.85Z" transform="translate(-141.74 -141.73)"/><path class="cls-1" d="M929.85,322.29c8.46,1.17,13.86,7.2,13.86,15.48,0,6.84-3.33,11.25-8,13.77-3.42,1.8-7,2.79-15.57,2.79H897.36v-61.2h20.88c7.47,0,13,.36,17.1,3.33a14.27,14.27,0,0,1,6,12.06C941.37,316.26,936,321.12,929.85,322.29Zm4-22.59c-3-2.52-6.93-3.24-13.86-3.24H900.87v24.39H919.5c6.3,0,8.91-.45,11.43-1.53a10.89,10.89,0,0,0,6.75-10.62A11.24,11.24,0,0,0,933.81,299.7ZM900.87,324v27h20c7.65,0,10.8-.9,13.77-2.79,3.33-2.07,5.31-5.49,5.31-10.53,0-6.12-3-10.17-8-12.24-2.34-.9-4.95-1.44-11.07-1.44Z" transform="translate(-141.74 -141.73)"/><path class="cls-1" d="M989.6,331.92v.81H956.22v.81c0,10.44,5.22,18.81,16,18.81,9.27,0,13-5.67,15.29-9.9l2.34,2.34a19.29,19.29,0,0,1-17.72,10.62c-11.79,0-19.53-8.1-19.53-22.32,0-13.5,7.11-22.68,18.9-22.68S989.6,319.41,989.6,331.92Zm-33.29-2.07h29.6c-.09-8.19-4.67-16.56-14.39-16.56C962.34,313.29,957.21,319.5,956.31,329.85Z" transform="translate(-141.74 -141.73)"/><path class="cls-1" d="M1033.43,354.33h-3.33v-23.4c0-10.53-1.26-17.46-11.7-17.46a13.3,13.3,0,0,0-9.81,3.87,16.26,16.26,0,0,0-4,11.07v25.92h-3.33v-61.2h3.33V319.5h.08c1.62-4.23,6.21-9.09,14.49-9.09,6.12,0,9.9,2.34,12.06,6.21,1.53,2.79,2.16,6.48,2.16,11.61Z" transform="translate(-141.74 -141.73)"/><path class="cls-1" d="M1076.54,323.73v22.41c0,4.59,1.08,6.12,4.32,6.12a7.14,7.14,0,0,0,2.61-.45v2.61a8.28,8.28,0,0,1-3.33.54c-4.14,0-6.66-2.16-6.66-6.84v-1.26h-.18c-1.8,3.87-6.66,8.55-15.38,8.55s-13.86-4.86-13.86-12.51c0-8.19,7-11.07,16-12.6l6.21-1.08c4.5-.81,7.11-1,7.11-4.86v-.63c0-6.93-3.42-10.44-11.79-10.44-8.81,0-12.5,4.14-12.68,11l-3.06-.9c.09-8.37,6.57-12.87,15.84-12.87C1069,310.5,1076.54,312.48,1076.54,323.73Zm-3.15,14.85v-8.73c-.81.72-3,1.26-6.39,1.89l-6.47,1.17c-7.74,1.44-12.87,3.42-12.87,10.08,0,6.39,4.59,9.54,11.33,9.54C1067.09,352.53,1073.39,346.59,1073.39,338.58Z" transform="translate(-141.74 -141.73)"/><path class="cls-1" d="M1103.81,354.33h-2.7l-15.57-42.84h3.69l10.62,29.61c1.26,3.42,2.52,7.74,2.79,8.73h.09c.27-1,1.62-5.13,3.06-8.82L1117,311.49h3.51Z" transform="translate(-141.74 -141.73)"/><path class="cls-1" d="M1133.06,302.58h-3.33v-7.19h3.33Zm0,51.75h-3.33V311.49h3.33Z" transform="translate(-141.74 -141.73)"/><path class="cls-1" d="M1163.66,310.41c11.88,0,19,9.09,19,22.68,0,13.41-7.29,22.32-19,22.32s-18.9-8.91-18.9-22.32C1144.76,319.5,1151.78,310.41,1163.66,310.41Zm0,42.12c9.27,0,15.39-7.29,15.39-19.53,0-12.51-5.94-19.71-15.39-19.71s-15.3,7.29-15.3,19.71S1154.48,352.53,1163.66,352.53Z" transform="translate(-141.74 -141.73)"/><path class="cls-1" d="M1193.81,311.49h3.33v23.4c0,10.53,1,17.46,11.43,17.46a12.87,12.87,0,0,0,9.63-3.87,16.27,16.27,0,0,0,4-11.07V311.49h3.33v42.84h-3.33v-7.74h-.09c-1.89,4.23-6,8.82-14.31,8.82-6.12,0-9.63-2.34-11.79-6.21-1.53-2.79-2.16-6.48-2.16-11.61Z" transform="translate(-141.74 -141.73)"/><path class="cls-1" d="M1259.33,313.92a14.27,14.27,0,0,0-3.24-.36c-8.1,0-12.6,7.92-12.6,15.12v25.65h-3.33V311.49h3.24v9.18h.09c1.26-4.77,5.67-10.26,12.51-10.26a10.62,10.62,0,0,1,3.33.45Z" transform="translate(-141.74 -141.73)"/></svg>
